<svg width="64" height="64" viewBox="0 0 64 64" fill="none" xmlns="http://www.w3.org/2000/svg">
  <path fill-rule="evenodd" clip-rule="evenodd" d="M32 4C16.432 4 4 16.432 4 32C4 44.864 12.64 55.776 24.32 59.68C25.28 59.84 25.6 59.296 25.6 58.784C25.6 58.304 25.568 56.704 25.552 55.104C16.672 57.024 14.4 51.168 14.4 51.168C13.152 48.288 11.104 47.552 11.104 47.552C9.088 46.08 11.296 46.112 11.296 46.112C13.6 46.272 14.88 48.672 14.88 48.672C17.216 52.704 21.472 51.552 23.104 50.784C23.392 49.472 24.032 48.736 24.64 48.352C18.496 47.616 12.064 45.184 12.064 32.256C12.064 28.672 13.328 25.792 15.456 23.648C15.072 22.784 14.4 20.352 16 19.968C19.2 19.84 22.4 22.272 22.4 22.272C25.6 21.408 28.8 21.088 32 21.088C35.2 21.088 38.4 21.408 41.6 22.272C41.6 22.272 44.8 19.84 48 19.968C49.6 20.352 48.928 22.784 48.544 23.648C50.672 25.792 51.936 28.672 51.936 32.256C51.936 45.216 45.472 47.584 39.296 48.32C40.064 49.056 40.8 50.368 40.8 52.448C40.8 54.464 40.704 56.416 40.64 58.24C40.64 58.928 40.96 59.488 41.952 59.328C53.28 55.392 62 44.768 62 32C62 16.432 49.568 4 32 4Z" fill="white"/>
</svg>